<svg width="35" height="35" viewBox="0 0 35 35" fill="none" xmlns="http://www.w3.org/2000/svg">
<path d="M1.925 5.36481L8.925 4.21967L15.6657 5.36481L29.3888 3.61936L32.4109 11.803L22.75 30.8585L9.24561 28.0816L1.925 5.36481Z" fill="#7F7F7F"/>
<path d="M17.4972 4.39698C19.0153 2.44025 20.7357 1.19861 22.4902 0.548537C24.3359 -0.134041 26.213 -0.150292 27.9277 0.353515C29.6509 0.857322 31.2089 1.88769 32.4109 3.2886C34.0002 5.14131 35 7.63109 35 10.4459C35 14.8989 33.1201 19.1407 30.0382 23.2426C27.1501 27.0878 23.1881 30.8322 18.7561 34.5312C18.0212 35.1455 17.0528 35.1422 16.335 34.6027V34.6059L16.3265 34.5994V34.6027L16.3208 34.5994L16.261 34.5507C14.9906 33.6016 13.7687 32.6297 12.6152 31.6448C11.4616 30.66 10.3337 29.6231 9.24561 28.5375C3.58317 22.8883 0 16.7061 0 10.4427C0 7.58234 0.979818 5.09906 2.54354 3.26585C3.75407 1.84543 5.31494 0.824818 7.04102 0.330762C8.74715 -0.156794 10.6213 -0.12429 12.467 0.555038C14.2387 1.20511 15.9762 2.45 17.4972 4.39698ZM23.7862 5.15756C22.2225 5.73613 20.6531 7.15654 19.3685 9.67883C19.189 10.0656 18.9128 10.3972 18.5567 10.6312C17.5427 11.2975 16.2467 10.8977 15.6657 9.74059C14.384 7.1988 12.7775 5.75238 11.1711 5.16406C10.1143 4.77727 9.04622 4.75777 8.0721 5.03405H8.06641C7.11222 5.30383 6.25204 5.86614 5.58838 6.64298C4.77092 7.60184 4.25822 8.91824 4.25822 10.4459C4.25822 15.1687 7.27458 20.1385 12.0341 24.8873C12.9683 25.8202 14.0137 26.779 15.153 27.7509C15.8964 28.388 16.6768 29.025 17.443 29.6166C21.1544 26.4442 24.4299 23.2686 26.814 20.093C29.2578 16.8426 30.7446 13.6183 30.7446 10.4459C30.7446 8.967 30.2205 7.6571 29.3888 6.68524C28.7109 5.89865 27.8422 5.32008 26.8823 5.04055C25.9139 4.75452 24.8458 4.76752 23.7862 5.15756Z" fill="white"/>
</svg>
